<?xml version="1.0" encoding="UTF-8"?>
<svg width="512" height="512" viewBox="0 0 512 512" fill="none" xmlns="http://www.w3.org/2000/svg">
  <!-- Background Circle -->
  <circle cx="256" cy="256" r="248" fill="#1E293B" stroke="#64748B" stroke-width="16"/>
  
  <!-- Graph Grid Lines -->
  <line x1="128" y1="128" x2="128" y2="384" stroke="#64748B" stroke-width="4" stroke-dasharray="8 8" opacity="0.5"/>
  <line x1="192" y1="128" x2="192" y2="384" stroke="#64748B" stroke-width="4" stroke-dasharray="8 8" opacity="0.5"/>
  <line x1="256" y1="128" x2="256" y2="384" stroke="#64748B" stroke-width="4" stroke-dasharray="8 8" opacity="0.5"/>
  <line x1="320" y1="128" x2="320" y2="384" stroke="#64748B" stroke-width="4" stroke-dasharray="8 8" opacity="0.5"/>
  <line x1="384" y1="128" x2="384" y2="384" stroke="#64748B" stroke-width="4" stroke-dasharray="8 8" opacity="0.5"/>
  
  <line x1="128" y1="128" x2="384" y2="128" stroke="#64748B" stroke-width="4" stroke-dasharray="8 8" opacity="0.5"/>
  <line x1="128" y1="192" x2="384" y2="192" stroke="#64748B" stroke-width="4" stroke-dasharray="8 8" opacity="0.5"/>
  <line x1="128" y1="256" x2="384" y2="256" stroke="#64748B" stroke-width="4" stroke-dasharray="8 8" opacity="0.5"/>
  <line x1="128" y1="320" x2="384" y2="320" stroke="#64748B" stroke-width="4" stroke-dasharray="8 8" opacity="0.5"/>
  <line x1="128" y1="384" x2="384" y2="384" stroke="#64748B" stroke-width="4" stroke-dasharray="8 8" opacity="0.5"/>
  
  <!-- Line Graph -->
  <path d="M128 320 L192 256 L256 192 L320 224 L384 160" stroke="#38BDF8" stroke-width="8" stroke-linecap="round" stroke-linejoin="round"/>
  
  <!-- Data Points -->
  <circle cx="128" cy="320" r="12" fill="#38BDF8"/>
  <circle cx="192" cy="256" r="12" fill="#38BDF8"/>
  <circle cx="256" cy="192" r="12" fill="#38BDF8"/>
  <circle cx="320" cy="224" r="12" fill="#38BDF8"/>
  <circle cx="384" cy="160" r="12" fill="#38BDF8"/>
  
  <!-- Bar Chart -->
  <rect x="144" y="320" width="16" height="64" rx="4" fill="#C084FC" opacity="0.8"/>
  <rect x="208" y="256" width="16" height="128" rx="4" fill="#C084FC" opacity="0.8"/>
  <rect x="272" y="192" width="16" height="192" rx="4" fill="#C084FC" opacity="0.8"/>
  <rect x="336" y="224" width="16" height="160" rx="4" fill="#C084FC" opacity="0.8"/>
</svg>
